    <svg xmlns="http://www.w3.org/2000/svg" width="25" height="25" viewBox="0 0 25 25" fill="white">
        <path fill-rule="evenodd" clip-rule="evenodd"
            d="M2.23013 4.5852C2.4378 3.05137 3.79125 2.08301 5.198 2.08301H7.87346C9.21855 2.08301 10.4127 2.94373 10.8381 4.2198L11.9313 7.49929C12.4011 8.90887 11.5715 10.4201 10.1301 10.7805C9.7776 10.8686 9.65603 11.3075 9.91293 11.5645L13.4353 15.0868C13.6922 15.3437 14.1311 15.2221 14.2192 14.8697C14.5796 13.4282 16.0909 12.5986 17.5005 13.0684L20.7799 14.1617C22.056 14.587 22.9167 15.7811 22.9167 17.1262V19.8018C22.9167 21.2084 21.9484 22.562 20.4145 22.7696C19.6994 22.8664 18.9698 22.9163 18.2292 22.9163C9.31211 22.9163 2.08337 15.6876 2.08337 6.77051C2.08337 6.02986 2.13331 5.30033 2.23013 4.5852Z" />
    </svg>