<svg width="50" height="50" viewBox="0 0 58 58" fill="none" xmlns="http://www.w3.org/2000/svg">
<g clip-path="url(#clip0_68_176)">
<path d="M29.2066 -0.0195312C17.3184 -0.0195312 7.25 10.1069 7.25 22.1002C7.25 34.6608 18.9207 47.506 26.7706 56.5341C26.8014 56.5703 28.0702 57.9787 29.6326 57.9787H29.7703C31.3345 57.9787 32.5942 56.5703 32.625 56.5341C39.991 48.0661 50.75 34.1008 50.75 22.1002C50.75 10.1051 42.8964 -0.0195312 29.2066 -0.0195312ZM29.9334 54.1017C29.87 54.1652 29.7776 54.2358 29.696 54.2957C29.6126 54.2377 29.522 54.1652 29.4549 54.1017L28.507 53.0106C21.0649 44.4737 10.8732 32.7813 10.8732 22.0984C10.8732 12.0717 19.2687 3.60184 29.2048 3.60184C41.5824 3.60184 47.1232 12.8909 47.1232 22.0984C47.1232 30.2075 41.3395 40.9774 29.9334 54.1017ZM29.0634 10.9552C23.0586 10.9552 18.1884 15.8235 18.1884 21.8302C18.1884 27.8368 23.0586 32.7052 29.0634 32.7052C35.0682 32.7052 39.9384 27.835 39.9384 21.8302C39.9384 15.8253 35.0701 10.9552 29.0634 10.9552ZM29.0634 29.0802C25.0651 29.0802 21.7301 25.7488 21.7301 21.7504C21.7301 17.752 24.9817 14.5004 28.9801 14.5004C32.9803 14.5004 36.2301 17.752 36.2301 21.7504C36.2319 25.7488 33.0636 29.0802 29.0634 29.0802Z" fill="#FB5B02"/>
</g>
<defs>
<clipPath id="clip0_68_176">
<rect width="58" height="58" fill="white"/>
</clipPath>
</defs>
</svg>
